# xmcd CD database file
#
# Track frame offsets:
#	150
#	16627
#	31081
#	50450
#	63257
#	78366
#	89650
#	103332
#	118738
#	131164
#	145521
#	158200
#
# Disc length: 2334 seconds
#
# Revision: 0
# Processed by: cddbd v1.4b41PL3 Copyright (c) Steve Scherf et al.
# Submitted via: Feurio! 1.61 - http://www.feurio.com
#
DISCID=98091c0c
DTITLE=Roy Black - Media Markt Collection
DYEAR=1900
DGENRE=
TTITLE0=Mona
TTITLE1=Wahnsinn
TTITLE2=In Japan geht die Sonne auf
TTITLE3=Für Dich allein
TTITLE4=Das Mädchen Carina
TTITLE5=Du bist nicht allein
TTITLE6=Ganz in Weiss
TTITLE7=Roy Black and Anita - Schön ist es auf der Welt zu sein
TTITLE8=Leg Dein Herz in meine Hände
TTITLE9=Eine Rose schenk ich Dir
TTITLE10=Dein schönstes Geschenk
TTITLE11=Liebe wie sie Dir gefällt
EXTD=CD #98091C0C4F328826
EXTT0=
EXTT1=
EXTT2=
EXTT3=
EXTT4=
EXTT5=
EXTT6=
EXTT7=
EXTT8=
EXTT9=
EXTT10=
EXTT11=
PLAYORDER=
